<mxfile host="app.diagrams.net" modified="2023-10-03T13:19:18.799Z" agent="Mozilla/5.0 (Windows NT 10.0; Win64; x64) AppleWebKit/537.36 (KHTML, like Gecko) Chrome/114.0.0.0 Safari/537.36" etag="ir8YMGUHxzJuwPp9xlKK" version="22.0.2" type="device">
  <diagram name="Página-1" id="Uli8f15DUSUqRyhosGSc">
    <mxGraphModel dx="841" dy="786" grid="1" gridSize="10" guides="1" tooltips="1" connect="1" arrows="1" fold="1" page="1" pageScale="1" pageWidth="827" pageHeight="1169" math="0" shadow="0">
      <root>
        <mxCell id="0" />
        <mxCell id="1" parent="0" />
        <mxCell id="iI82LJYUmYYiU_2QPc3X-1" value="REVISTA" style="swimlane;childLayout=stackLayout;horizontal=1;startSize=50;horizontalStack=0;rounded=1;fontSize=14;fontStyle=0;strokeWidth=2;resizeParent=0;resizeLast=1;shadow=0;dashed=0;align=center;arcSize=4;whiteSpace=wrap;html=1;" parent="1" vertex="1">
          <mxGeometry x="10" y="430" width="160" height="140" as="geometry">
            <mxRectangle x="210" y="310" width="100" height="50" as="alternateBounds" />
          </mxGeometry>
        </mxCell>
        <mxCell id="iI82LJYUmYYiU_2QPc3X-2" value="&lt;u&gt;ISSN&lt;/u&gt;&lt;br&gt;titulo&lt;br&gt;número&lt;br&gt;año publicación&lt;br&gt;nº ejemplares" style="align=left;strokeColor=none;fillColor=none;spacingLeft=4;fontSize=12;verticalAlign=top;resizable=0;rotatable=0;part=1;html=1;" parent="iI82LJYUmYYiU_2QPc3X-1" vertex="1">
          <mxGeometry y="50" width="160" height="90" as="geometry" />
        </mxCell>
        <mxCell id="iI82LJYUmYYiU_2QPc3X-3" value="" style="swimlane;childLayout=stackLayout;horizontal=1;startSize=0;horizontalStack=0;rounded=1;fontSize=14;fontStyle=0;strokeWidth=2;resizeParent=0;resizeLast=1;shadow=0;dashed=0;align=center;arcSize=4;whiteSpace=wrap;html=1;" parent="1" vertex="1">
          <mxGeometry x="370" y="260" width="160" height="120" as="geometry" />
        </mxCell>
        <mxCell id="iI82LJYUmYYiU_2QPc3X-24" value="EJEMPLAR" style="shape=ext;margin=3;double=1;whiteSpace=wrap;html=1;align=center;" parent="iI82LJYUmYYiU_2QPc3X-3" vertex="1">
          <mxGeometry width="160" height="40" as="geometry" />
        </mxCell>
        <mxCell id="iI82LJYUmYYiU_2QPc3X-4" value="&lt;u&gt;Código E&lt;br&gt;ISSN&lt;/u&gt;&lt;br&gt;editado (si/no)&lt;br&gt;ciudad distribución" style="align=left;strokeColor=none;fillColor=none;spacingLeft=4;fontSize=12;verticalAlign=top;resizable=0;rotatable=0;part=1;html=1;" parent="iI82LJYUmYYiU_2QPc3X-3" vertex="1">
          <mxGeometry y="40" width="160" height="80" as="geometry" />
        </mxCell>
        <mxCell id="iI82LJYUmYYiU_2QPc3X-7" value="ARTÍCULO" style="swimlane;childLayout=stackLayout;horizontal=1;startSize=50;horizontalStack=0;rounded=1;fontSize=14;fontStyle=0;strokeWidth=2;resizeParent=0;resizeLast=1;shadow=0;dashed=0;align=center;arcSize=4;whiteSpace=wrap;html=1;" parent="1" vertex="1">
          <mxGeometry x="370" y="590" width="160" height="120" as="geometry" />
        </mxCell>
        <mxCell id="iI82LJYUmYYiU_2QPc3X-8" value="&lt;u&gt;Título&lt;br&gt;&lt;/u&gt;pág inicio&lt;br&gt;pág final&lt;br&gt;" style="align=left;strokeColor=none;fillColor=none;spacingLeft=4;fontSize=12;verticalAlign=top;resizable=0;rotatable=0;part=1;html=1;" parent="iI82LJYUmYYiU_2QPc3X-7" vertex="1">
          <mxGeometry y="50" width="160" height="70" as="geometry" />
        </mxCell>
        <mxCell id="iI82LJYUmYYiU_2QPc3X-9" value="AUTOR" style="swimlane;childLayout=stackLayout;horizontal=1;startSize=50;horizontalStack=0;rounded=1;fontSize=14;fontStyle=0;strokeWidth=2;resizeParent=0;resizeLast=1;shadow=0;dashed=0;align=center;arcSize=4;whiteSpace=wrap;html=1;" parent="1" vertex="1">
          <mxGeometry x="660" y="400" width="160" height="150" as="geometry" />
        </mxCell>
        <mxCell id="iI82LJYUmYYiU_2QPc3X-10" value="&lt;u&gt;Código A&lt;/u&gt;&lt;br&gt;nombre&lt;br&gt;ape1&lt;br&gt;N ape2&lt;br&gt;correo electrónico&lt;br&gt;adscripción" style="align=left;strokeColor=none;fillColor=none;spacingLeft=4;fontSize=12;verticalAlign=top;resizable=0;rotatable=0;part=1;html=1;" parent="iI82LJYUmYYiU_2QPc3X-9" vertex="1">
          <mxGeometry y="50" width="160" height="100" as="geometry" />
        </mxCell>
        <mxCell id="iI82LJYUmYYiU_2QPc3X-11" value="CONTIENE&lt;br&gt;1xN" style="shape=rhombus;perimeter=rhombusPerimeter;whiteSpace=wrap;html=1;align=center;" parent="1" vertex="1">
          <mxGeometry x="160" y="620" width="120" height="60" as="geometry" />
        </mxCell>
        <mxCell id="iI82LJYUmYYiU_2QPc3X-12" value="" style="endArrow=none;html=1;rounded=0;" parent="1" source="iI82LJYUmYYiU_2QPc3X-2" target="iI82LJYUmYYiU_2QPc3X-11" edge="1">
          <mxGeometry relative="1" as="geometry">
            <mxPoint x="330" y="400" as="sourcePoint" />
            <mxPoint x="490" y="400" as="targetPoint" />
          </mxGeometry>
        </mxCell>
        <mxCell id="iI82LJYUmYYiU_2QPc3X-13" value="" style="endArrow=none;html=1;rounded=0;" parent="1" source="iI82LJYUmYYiU_2QPc3X-11" target="iI82LJYUmYYiU_2QPc3X-7" edge="1">
          <mxGeometry relative="1" as="geometry">
            <mxPoint x="170" y="580" as="sourcePoint" />
            <mxPoint x="214" y="608" as="targetPoint" />
          </mxGeometry>
        </mxCell>
        <mxCell id="iI82LJYUmYYiU_2QPc3X-14" value="" style="endArrow=none;html=1;rounded=0;" parent="1" source="iI82LJYUmYYiU_2QPc3X-20" target="iI82LJYUmYYiU_2QPc3X-9" edge="1">
          <mxGeometry relative="1" as="geometry">
            <mxPoint x="274" y="638" as="sourcePoint" />
            <mxPoint x="330" y="659" as="targetPoint" />
          </mxGeometry>
        </mxCell>
        <mxCell id="iI82LJYUmYYiU_2QPc3X-17" value="" style="endArrow=none;html=1;rounded=0;entryX=0;entryY=0.25;entryDx=0;entryDy=0;" parent="1" source="iI82LJYUmYYiU_2QPc3X-1" target="iI82LJYUmYYiU_2QPc3X-4" edge="1">
          <mxGeometry relative="1" as="geometry">
            <mxPoint x="330" y="400" as="sourcePoint" />
            <mxPoint x="204.0816326530612" y="342.0408163265306" as="targetPoint" />
          </mxGeometry>
        </mxCell>
        <mxCell id="iI82LJYUmYYiU_2QPc3X-21" value="" style="endArrow=none;html=1;rounded=0;" parent="1" source="iI82LJYUmYYiU_2QPc3X-7" target="iI82LJYUmYYiU_2QPc3X-20" edge="1">
          <mxGeometry relative="1" as="geometry">
            <mxPoint x="480" y="680" as="sourcePoint" />
            <mxPoint x="660" y="680" as="targetPoint" />
          </mxGeometry>
        </mxCell>
        <mxCell id="iI82LJYUmYYiU_2QPc3X-20" value="ESCRITO&lt;br&gt;NxM" style="shape=rhombus;perimeter=rhombusPerimeter;whiteSpace=wrap;html=1;align=center;" parent="1" vertex="1">
          <mxGeometry x="620" y="620" width="120" height="60" as="geometry" />
        </mxCell>
        <mxCell id="iI82LJYUmYYiU_2QPc3X-26" value="(1,1)" style="text;html=1;align=center;verticalAlign=middle;resizable=0;points=[];autosize=1;strokeColor=none;fillColor=none;" parent="1" vertex="1">
          <mxGeometry x="165" y="585" width="50" height="30" as="geometry" />
        </mxCell>
        <mxCell id="iI82LJYUmYYiU_2QPc3X-27" value="(1,n)" style="text;html=1;align=center;verticalAlign=middle;resizable=0;points=[];autosize=1;strokeColor=none;fillColor=none;" parent="1" vertex="1">
          <mxGeometry x="300" y="620" width="50" height="30" as="geometry" />
        </mxCell>
        <mxCell id="iI82LJYUmYYiU_2QPc3X-28" value="(1,n)" style="text;html=1;align=center;verticalAlign=middle;resizable=0;points=[];autosize=1;strokeColor=none;fillColor=none;" parent="1" vertex="1">
          <mxGeometry x="550" y="620" width="50" height="30" as="geometry" />
        </mxCell>
        <mxCell id="iI82LJYUmYYiU_2QPc3X-29" value="(1,n)" style="text;html=1;align=center;verticalAlign=middle;resizable=0;points=[];autosize=1;strokeColor=none;fillColor=none;" parent="1" vertex="1">
          <mxGeometry x="660" y="570" width="50" height="30" as="geometry" />
        </mxCell>
        <mxCell id="iI82LJYUmYYiU_2QPc3X-30" value="posición" style="ellipse;whiteSpace=wrap;html=1;align=center;" parent="1" vertex="1">
          <mxGeometry x="710" y="690" width="100" height="40" as="geometry" />
        </mxCell>
        <mxCell id="iI82LJYUmYYiU_2QPc3X-31" value="" style="endArrow=none;html=1;rounded=0;" parent="1" source="iI82LJYUmYYiU_2QPc3X-30" target="iI82LJYUmYYiU_2QPc3X-20" edge="1">
          <mxGeometry relative="1" as="geometry">
            <mxPoint x="330" y="470" as="sourcePoint" />
            <mxPoint x="490" y="470" as="targetPoint" />
          </mxGeometry>
        </mxCell>
      </root>
    </mxGraphModel>
  </diagram>
</mxfile>
